<mxfile host="app.diagrams.net" modified="2023-04-24T17:43:12.880Z" agent="Mozilla/5.0 (Windows NT 10.0; Win64; x64) AppleWebKit/537.36 (KHTML, like Gecko) Chrome/112.0.0.0 Safari/537.36" etag="VpaqDPWMj4Kv9ipr3eiU" version="21.2.1" type="device">
  <diagram name="Page-1" id="7e0a89b8-554c-2b80-1dc8-d5c74ca68de4">
    <mxGraphModel dx="693" dy="406" grid="1" gridSize="1" guides="1" tooltips="1" connect="1" arrows="1" fold="1" page="1" pageScale="1" pageWidth="827" pageHeight="1169" background="none" math="0" shadow="0">
      <root>
        <mxCell id="0" />
        <mxCell id="1" parent="0" />
        <mxCell id="6mb8tyxkaXb4ksADJFs9-176" style="edgeStyle=elbowEdgeStyle;rounded=0;orthogonalLoop=1;jettySize=auto;html=1;startArrow=none;endArrow=classic;entryX=0.003;entryY=0.856;entryDx=0;entryDy=0;entryPerimeter=0;endFill=1;strokeWidth=3;" edge="1" parent="1" target="6mb8tyxkaXb4ksADJFs9-81">
          <mxGeometry relative="1" as="geometry">
            <mxPoint x="421" y="492" as="sourcePoint" />
            <Array as="points">
              <mxPoint x="421" y="469" />
              <mxPoint x="441" y="461" />
            </Array>
          </mxGeometry>
        </mxCell>
        <UserObject label="ATmega328p" treeRoot="1" id="6mb8tyxkaXb4ksADJFs9-2">
          <mxCell style="whiteSpace=wrap;html=1;align=center;treeFolding=1;treeMoving=1;newEdgeStyle={&quot;edgeStyle&quot;:&quot;elbowEdgeStyle&quot;,&quot;startArrow&quot;:&quot;none&quot;,&quot;endArrow&quot;:&quot;none&quot;};" vertex="1" parent="1">
            <mxGeometry x="368" y="493" width="120" height="184" as="geometry" />
          </mxCell>
        </UserObject>
        <mxCell id="6mb8tyxkaXb4ksADJFs9-6" style="edgeStyle=elbowEdgeStyle;rounded=0;orthogonalLoop=1;jettySize=auto;html=1;startArrow=none;endArrow=none;exitX=1;exitY=0.25;exitDx=0;exitDy=0;entryX=-0.006;entryY=0.121;entryDx=0;entryDy=0;entryPerimeter=0;" edge="1" parent="1" source="6mb8tyxkaXb4ksADJFs9-3" target="6mb8tyxkaXb4ksADJFs9-2">
          <mxGeometry relative="1" as="geometry" />
        </mxCell>
        <mxCell id="6mb8tyxkaXb4ksADJFs9-7" style="edgeStyle=elbowEdgeStyle;rounded=0;orthogonalLoop=1;jettySize=auto;html=1;startArrow=none;endArrow=none;exitX=1;exitY=0.5;exitDx=0;exitDy=0;entryX=0.003;entryY=0.238;entryDx=0;entryDy=0;entryPerimeter=0;" edge="1" parent="1" source="6mb8tyxkaXb4ksADJFs9-3" target="6mb8tyxkaXb4ksADJFs9-2">
          <mxGeometry relative="1" as="geometry" />
        </mxCell>
        <mxCell id="6mb8tyxkaXb4ksADJFs9-8" style="edgeStyle=elbowEdgeStyle;rounded=0;orthogonalLoop=1;jettySize=auto;html=1;startArrow=none;endArrow=none;exitX=1;exitY=0.75;exitDx=0;exitDy=0;entryX=0.001;entryY=0.358;entryDx=0;entryDy=0;entryPerimeter=0;" edge="1" parent="1" source="6mb8tyxkaXb4ksADJFs9-3" target="6mb8tyxkaXb4ksADJFs9-2">
          <mxGeometry relative="1" as="geometry" />
        </mxCell>
        <UserObject label="74HC595" treeRoot="1" id="6mb8tyxkaXb4ksADJFs9-3">
          <mxCell style="whiteSpace=wrap;html=1;align=center;treeFolding=1;treeMoving=1;newEdgeStyle={&quot;edgeStyle&quot;:&quot;elbowEdgeStyle&quot;,&quot;startArrow&quot;:&quot;none&quot;,&quot;endArrow&quot;:&quot;none&quot;};" vertex="1" parent="1">
            <mxGeometry x="236" y="493" width="68" height="88" as="geometry" />
          </mxCell>
        </UserObject>
        <mxCell id="6mb8tyxkaXb4ksADJFs9-9" style="edgeStyle=elbowEdgeStyle;rounded=0;orthogonalLoop=1;jettySize=auto;html=1;startArrow=none;endArrow=none;exitX=1;exitY=0.25;exitDx=0;exitDy=0;" edge="1" parent="1" source="6mb8tyxkaXb4ksADJFs9-4">
          <mxGeometry relative="1" as="geometry">
            <mxPoint x="316" y="516" as="targetPoint" />
            <Array as="points">
              <mxPoint x="316" y="464" />
              <mxPoint x="312" y="568" />
              <mxPoint x="332" y="568" />
            </Array>
          </mxGeometry>
        </mxCell>
        <mxCell id="6mb8tyxkaXb4ksADJFs9-13" style="edgeStyle=elbowEdgeStyle;rounded=0;orthogonalLoop=1;jettySize=auto;html=1;startArrow=none;endArrow=none;exitX=1;exitY=0.5;exitDx=0;exitDy=0;" edge="1" parent="1" source="6mb8tyxkaXb4ksADJFs9-4">
          <mxGeometry relative="1" as="geometry">
            <mxPoint x="324" y="536" as="targetPoint" />
            <Array as="points">
              <mxPoint x="324" y="592" />
              <mxPoint x="344" y="592" />
            </Array>
          </mxGeometry>
        </mxCell>
        <mxCell id="6mb8tyxkaXb4ksADJFs9-14" style="edgeStyle=elbowEdgeStyle;rounded=0;orthogonalLoop=1;jettySize=auto;html=1;startArrow=none;endArrow=none;exitX=1;exitY=0.75;exitDx=0;exitDy=0;entryX=-0.002;entryY=0.433;entryDx=0;entryDy=0;entryPerimeter=0;" edge="1" parent="1" source="6mb8tyxkaXb4ksADJFs9-4" target="6mb8tyxkaXb4ksADJFs9-2">
          <mxGeometry relative="1" as="geometry">
            <Array as="points">
              <mxPoint x="332" y="620" />
            </Array>
          </mxGeometry>
        </mxCell>
        <mxCell id="6mb8tyxkaXb4ksADJFs9-91" style="edgeStyle=elbowEdgeStyle;rounded=0;orthogonalLoop=1;jettySize=auto;html=1;startArrow=none;endArrow=classic;exitX=1;exitY=0.25;exitDx=0;exitDy=0;entryX=-0.003;entryY=0.32;entryDx=0;entryDy=0;strokeWidth=3;endFill=0;entryPerimeter=0;" edge="1" parent="1" source="6mb8tyxkaXb4ksADJFs9-4" target="6mb8tyxkaXb4ksADJFs9-81">
          <mxGeometry relative="1" as="geometry" />
        </mxCell>
        <UserObject label="74HC595" treeRoot="1" id="6mb8tyxkaXb4ksADJFs9-4">
          <mxCell style="whiteSpace=wrap;html=1;align=center;treeFolding=1;treeMoving=1;newEdgeStyle={&quot;edgeStyle&quot;:&quot;elbowEdgeStyle&quot;,&quot;startArrow&quot;:&quot;none&quot;,&quot;endArrow&quot;:&quot;none&quot;};" vertex="1" parent="1">
            <mxGeometry x="340" y="388" width="68" height="88" as="geometry" />
          </mxCell>
        </UserObject>
        <mxCell id="6mb8tyxkaXb4ksADJFs9-15" value="&lt;font style=&quot;font-size: 8px;&quot;&gt;Data&lt;/font&gt;" style="text;html=1;strokeColor=none;fillColor=none;align=center;verticalAlign=middle;whiteSpace=wrap;rounded=0;" vertex="1" parent="1">
          <mxGeometry x="348" y="497.5" width="60" height="30" as="geometry" />
        </mxCell>
        <mxCell id="6mb8tyxkaXb4ksADJFs9-17" value="&lt;font style=&quot;font-size: 8px;&quot;&gt;Shift clock&lt;/font&gt;" style="text;html=1;strokeColor=none;fillColor=none;align=center;verticalAlign=middle;whiteSpace=wrap;rounded=0;" vertex="1" parent="1">
          <mxGeometry x="356" y="520" width="60" height="30" as="geometry" />
        </mxCell>
        <mxCell id="6mb8tyxkaXb4ksADJFs9-18" value="&lt;span style=&quot;font-size: 8px;&quot;&gt;Latch 1&lt;/span&gt;" style="text;html=1;strokeColor=none;fillColor=none;align=center;verticalAlign=middle;whiteSpace=wrap;rounded=0;" vertex="1" parent="1">
          <mxGeometry x="352" y="540" width="60" height="30" as="geometry" />
        </mxCell>
        <mxCell id="6mb8tyxkaXb4ksADJFs9-19" value="&lt;span style=&quot;font-size: 8px;&quot;&gt;Latch 2&lt;/span&gt;" style="text;html=1;strokeColor=none;fillColor=none;align=center;verticalAlign=middle;whiteSpace=wrap;rounded=0;" vertex="1" parent="1">
          <mxGeometry x="352" y="554.5" width="60" height="30" as="geometry" />
        </mxCell>
        <mxCell id="6mb8tyxkaXb4ksADJFs9-33" style="edgeStyle=orthogonalEdgeStyle;rounded=0;orthogonalLoop=1;jettySize=auto;html=1;exitX=0;exitY=0.75;exitDx=0;exitDy=0;strokeWidth=3;entryX=-0.004;entryY=0.797;entryDx=0;entryDy=0;entryPerimeter=0;" edge="1" parent="1" source="6mb8tyxkaXb4ksADJFs9-20" target="6mb8tyxkaXb4ksADJFs9-2">
          <mxGeometry relative="1" as="geometry">
            <mxPoint x="360" y="656" as="targetPoint" />
          </mxGeometry>
        </mxCell>
        <mxCell id="6mb8tyxkaXb4ksADJFs9-20" value="Key pad&lt;br&gt;3x4" style="rounded=0;whiteSpace=wrap;html=1;" vertex="1" parent="1">
          <mxGeometry x="74" y="499" width="64" height="71" as="geometry" />
        </mxCell>
        <mxCell id="6mb8tyxkaXb4ksADJFs9-30" value="" style="endArrow=classic;html=1;rounded=0;strokeWidth=3;entryX=1;entryY=0.25;entryDx=0;entryDy=0;" edge="1" parent="1" target="6mb8tyxkaXb4ksADJFs9-20">
          <mxGeometry width="50" height="50" relative="1" as="geometry">
            <mxPoint x="236" y="515" as="sourcePoint" />
            <mxPoint x="192" y="516" as="targetPoint" />
          </mxGeometry>
        </mxCell>
        <mxCell id="6mb8tyxkaXb4ksADJFs9-32" value="&lt;font style=&quot;font-size: 8px;&quot;&gt;SIG scankey&lt;/font&gt;" style="text;html=1;strokeColor=none;fillColor=none;align=center;verticalAlign=middle;whiteSpace=wrap;rounded=0;strokeWidth=3;glass=0;spacing=-11;spacingTop=-1;direction=west;flipV=0;flipH=1;labelBorderColor=none;horizontal=1;" vertex="1" parent="1">
          <mxGeometry x="546" y="670" width="47" height="49.75" as="geometry" />
        </mxCell>
        <mxCell id="6mb8tyxkaXb4ksADJFs9-36" value="&lt;span style=&quot;font-size: 8px;&quot;&gt;SIG KEY INPUT&lt;/span&gt;" style="text;html=1;strokeColor=none;fillColor=none;align=center;verticalAlign=middle;whiteSpace=wrap;rounded=0;" vertex="1" parent="1">
          <mxGeometry x="163" y="609" width="60" height="48" as="geometry" />
        </mxCell>
        <mxCell id="6mb8tyxkaXb4ksADJFs9-38" value="" style="pointerEvents=1;verticalLabelPosition=bottom;shadow=0;dashed=0;align=center;html=1;verticalAlign=top;shape=mxgraph.electrical.waveforms.slow_square_wave;" vertex="1" parent="1">
          <mxGeometry x="137" y="624" width="26" height="12" as="geometry" />
        </mxCell>
        <mxCell id="6mb8tyxkaXb4ksADJFs9-42" value="" style="pointerEvents=1;verticalLabelPosition=bottom;shadow=0;dashed=0;align=center;html=1;verticalAlign=top;shape=mxgraph.electrical.waveforms.step_1;" vertex="1" parent="1">
          <mxGeometry x="352" y="564" width="10" height="6" as="geometry" />
        </mxCell>
        <mxCell id="6mb8tyxkaXb4ksADJFs9-43" value="" style="pointerEvents=1;verticalLabelPosition=bottom;shadow=0;dashed=0;align=center;html=1;verticalAlign=top;shape=mxgraph.electrical.waveforms.step_1;" vertex="1" parent="1">
          <mxGeometry x="352" y="550" width="10" height="6" as="geometry" />
        </mxCell>
        <mxCell id="6mb8tyxkaXb4ksADJFs9-44" value="" style="pointerEvents=1;verticalLabelPosition=bottom;shadow=0;dashed=0;align=center;html=1;verticalAlign=top;shape=mxgraph.electrical.waveforms.square_wave;" vertex="1" parent="1">
          <mxGeometry x="356" y="500" width="10" height="12" as="geometry" />
        </mxCell>
        <mxCell id="6mb8tyxkaXb4ksADJFs9-45" value="" style="pointerEvents=1;verticalLabelPosition=bottom;shadow=0;dashed=0;align=center;html=1;verticalAlign=top;shape=mxgraph.electrical.waveforms.square_wave;" vertex="1" parent="1">
          <mxGeometry x="356" y="521" width="10" height="12" as="geometry" />
        </mxCell>
        <mxCell id="6mb8tyxkaXb4ksADJFs9-46" value="&lt;font style=&quot;font-size: 8px;&quot;&gt;BUS 0 -4&lt;/font&gt;" style="text;html=1;strokeColor=none;fillColor=none;align=center;verticalAlign=middle;whiteSpace=wrap;rounded=0;fontSize=12;strokeWidth=1;" vertex="1" parent="1">
          <mxGeometry x="236" y="500" width="44" height="28" as="geometry" />
        </mxCell>
        <mxCell id="6mb8tyxkaXb4ksADJFs9-51" value="" style="pointerEvents=1;verticalLabelPosition=bottom;shadow=0;dashed=0;align=center;html=1;verticalAlign=top;shape=mxgraph.electrical.resistors.memristor_1;horizontal=0;rotation=0;" vertex="1" parent="1">
          <mxGeometry x="546" y="706.75" width="32" height="9.5" as="geometry" />
        </mxCell>
        <mxCell id="6mb8tyxkaXb4ksADJFs9-81" value="" style="rounded=0;whiteSpace=wrap;html=1;" vertex="1" parent="1">
          <mxGeometry x="456" y="388" width="192" height="68" as="geometry" />
        </mxCell>
        <mxCell id="6mb8tyxkaXb4ksADJFs9-82" value="" style="verticalLabelPosition=bottom;shadow=0;dashed=0;align=center;html=1;verticalAlign=top;shape=mxgraph.electrical.opto_electronics.9_segment_display;pointerEvents=1;" vertex="1" parent="1">
          <mxGeometry x="472" y="395.58" width="26.7" height="28.85" as="geometry" />
        </mxCell>
        <mxCell id="6mb8tyxkaXb4ksADJFs9-83" value="" style="verticalLabelPosition=bottom;shadow=0;dashed=0;align=center;html=1;verticalAlign=top;shape=mxgraph.electrical.opto_electronics.9_segment_display;pointerEvents=1;" vertex="1" parent="1">
          <mxGeometry x="500" y="395.58" width="26.7" height="28.85" as="geometry" />
        </mxCell>
        <mxCell id="6mb8tyxkaXb4ksADJFs9-84" value="" style="verticalLabelPosition=bottom;shadow=0;dashed=0;align=center;html=1;verticalAlign=top;shape=mxgraph.electrical.opto_electronics.9_segment_display;pointerEvents=1;" vertex="1" parent="1">
          <mxGeometry x="528" y="395.58" width="26.7" height="28.85" as="geometry" />
        </mxCell>
        <mxCell id="6mb8tyxkaXb4ksADJFs9-85" value="" style="verticalLabelPosition=bottom;shadow=0;dashed=0;align=center;html=1;verticalAlign=top;shape=mxgraph.electrical.opto_electronics.9_segment_display;pointerEvents=1;" vertex="1" parent="1">
          <mxGeometry x="554.7" y="395.58" width="26.7" height="28.85" as="geometry" />
        </mxCell>
        <mxCell id="6mb8tyxkaXb4ksADJFs9-86" value="" style="verticalLabelPosition=bottom;shadow=0;dashed=0;align=center;html=1;verticalAlign=top;shape=mxgraph.electrical.opto_electronics.9_segment_display;pointerEvents=1;" vertex="1" parent="1">
          <mxGeometry x="581.4" y="395.58" width="26.7" height="28.85" as="geometry" />
        </mxCell>
        <mxCell id="6mb8tyxkaXb4ksADJFs9-87" value="" style="verticalLabelPosition=bottom;shadow=0;dashed=0;align=center;html=1;verticalAlign=top;shape=mxgraph.electrical.opto_electronics.9_segment_display;pointerEvents=1;" vertex="1" parent="1">
          <mxGeometry x="608" y="395.58" width="28.1" height="28.42" as="geometry" />
        </mxCell>
        <mxCell id="6mb8tyxkaXb4ksADJFs9-90" value="&lt;font style=&quot;font-size: 13px;&quot;&gt;LCD 1602&lt;/font&gt;" style="text;html=1;strokeColor=none;fillColor=none;align=center;verticalAlign=middle;whiteSpace=wrap;rounded=0;fontSize=13;fontStyle=1" vertex="1" parent="1">
          <mxGeometry x="584" y="431" width="60" height="30" as="geometry" />
        </mxCell>
        <mxCell id="6mb8tyxkaXb4ksADJFs9-92" value="&lt;font style=&quot;font-size: 8px;&quot;&gt;Data&lt;/font&gt;" style="text;html=1;strokeColor=none;fillColor=none;align=center;verticalAlign=middle;whiteSpace=wrap;rounded=0;" vertex="1" parent="1">
          <mxGeometry x="392" y="388" width="60" height="30" as="geometry" />
        </mxCell>
        <mxCell id="6mb8tyxkaXb4ksADJFs9-94" value="" style="pointerEvents=1;verticalLabelPosition=bottom;shadow=0;dashed=0;align=center;html=1;verticalAlign=top;shape=mxgraph.electrical.resistors.memristor_1;horizontal=1;rotation=-180;" vertex="1" parent="1">
          <mxGeometry x="412" y="414.5" width="32" height="9.5" as="geometry" />
        </mxCell>
        <mxCell id="6mb8tyxkaXb4ksADJFs9-99" style="edgeStyle=orthogonalEdgeStyle;rounded=0;orthogonalLoop=1;jettySize=auto;html=1;exitX=1;exitY=0.5;exitDx=0;exitDy=0;exitPerimeter=0;entryX=-0.001;entryY=0.552;entryDx=0;entryDy=0;entryPerimeter=0;endArrow=none;endFill=0;" edge="1" parent="1" source="6mb8tyxkaXb4ksADJFs9-96">
          <mxGeometry relative="1" as="geometry">
            <mxPoint x="368.38" y="594.7580000000002" as="targetPoint" />
          </mxGeometry>
        </mxCell>
        <mxCell id="6mb8tyxkaXb4ksADJFs9-105" style="edgeStyle=orthogonalEdgeStyle;rounded=0;orthogonalLoop=1;jettySize=auto;html=1;exitX=0;exitY=0.5;exitDx=0;exitDy=0;exitPerimeter=0;entryX=1;entryY=0.5;entryDx=0;entryDy=0;entryPerimeter=0;endArrow=none;endFill=0;" edge="1" parent="1" source="6mb8tyxkaXb4ksADJFs9-96" target="6mb8tyxkaXb4ksADJFs9-100">
          <mxGeometry relative="1" as="geometry" />
        </mxCell>
        <mxCell id="6mb8tyxkaXb4ksADJFs9-96" value="" style="pointerEvents=1;verticalLabelPosition=bottom;shadow=0;dashed=0;align=center;html=1;verticalAlign=top;shape=mxgraph.electrical.miscellaneous.light_bulb;" vertex="1" parent="1">
          <mxGeometry x="340.5" y="588.19" width="16" height="12.75" as="geometry" />
        </mxCell>
        <mxCell id="6mb8tyxkaXb4ksADJFs9-98" style="edgeStyle=orthogonalEdgeStyle;rounded=0;orthogonalLoop=1;jettySize=auto;html=1;exitX=1;exitY=0.5;exitDx=0;exitDy=0;exitPerimeter=0;entryX=0.005;entryY=0.639;entryDx=0;entryDy=0;entryPerimeter=0;endArrow=none;endFill=0;" edge="1" parent="1" source="6mb8tyxkaXb4ksADJFs9-97">
          <mxGeometry relative="1" as="geometry">
            <mxPoint x="369.1" y="610.7660000000001" as="targetPoint" />
          </mxGeometry>
        </mxCell>
        <mxCell id="6mb8tyxkaXb4ksADJFs9-106" style="edgeStyle=orthogonalEdgeStyle;rounded=0;orthogonalLoop=1;jettySize=auto;html=1;exitX=0;exitY=0.5;exitDx=0;exitDy=0;exitPerimeter=0;entryX=1;entryY=0.5;entryDx=0;entryDy=0;entryPerimeter=0;endArrow=none;endFill=0;" edge="1" parent="1" source="6mb8tyxkaXb4ksADJFs9-97" target="6mb8tyxkaXb4ksADJFs9-101">
          <mxGeometry relative="1" as="geometry" />
        </mxCell>
        <mxCell id="6mb8tyxkaXb4ksADJFs9-97" value="" style="pointerEvents=1;verticalLabelPosition=bottom;shadow=0;dashed=0;align=center;html=1;verticalAlign=top;shape=mxgraph.electrical.miscellaneous.light_bulb;" vertex="1" parent="1">
          <mxGeometry x="340.5" y="604.19" width="16" height="12.75" as="geometry" />
        </mxCell>
        <mxCell id="6mb8tyxkaXb4ksADJFs9-103" style="edgeStyle=orthogonalEdgeStyle;rounded=0;orthogonalLoop=1;jettySize=auto;html=1;exitX=0;exitY=0.5;exitDx=0;exitDy=0;exitPerimeter=0;entryX=0.5;entryY=0;entryDx=0;entryDy=0;entryPerimeter=0;endArrow=none;endFill=0;" edge="1" parent="1" source="6mb8tyxkaXb4ksADJFs9-100" target="6mb8tyxkaXb4ksADJFs9-102">
          <mxGeometry relative="1" as="geometry" />
        </mxCell>
        <mxCell id="6mb8tyxkaXb4ksADJFs9-100" value="" style="pointerEvents=1;verticalLabelPosition=bottom;shadow=0;dashed=0;align=center;html=1;verticalAlign=top;shape=mxgraph.electrical.resistors.resistor_2;" vertex="1" parent="1">
          <mxGeometry x="288.5" y="590.7500000000001" width="44" height="7.63" as="geometry" />
        </mxCell>
        <mxCell id="6mb8tyxkaXb4ksADJFs9-109" style="edgeStyle=orthogonalEdgeStyle;rounded=0;orthogonalLoop=1;jettySize=auto;html=1;exitX=0;exitY=0.5;exitDx=0;exitDy=0;exitPerimeter=0;endArrow=none;endFill=0;" edge="1" parent="1" source="6mb8tyxkaXb4ksADJFs9-101">
          <mxGeometry relative="1" as="geometry">
            <mxPoint x="273.5" y="610.5416483516484" as="targetPoint" />
          </mxGeometry>
        </mxCell>
        <mxCell id="6mb8tyxkaXb4ksADJFs9-101" value="" style="pointerEvents=1;verticalLabelPosition=bottom;shadow=0;dashed=0;align=center;html=1;verticalAlign=top;shape=mxgraph.electrical.resistors.resistor_2;" vertex="1" parent="1">
          <mxGeometry x="288.5" y="606.7500000000001" width="44" height="7.63" as="geometry" />
        </mxCell>
        <mxCell id="6mb8tyxkaXb4ksADJFs9-102" value="" style="pointerEvents=1;verticalLabelPosition=bottom;shadow=0;dashed=0;align=center;html=1;verticalAlign=top;shape=mxgraph.electrical.signal_sources.protective_earth;" vertex="1" parent="1">
          <mxGeometry x="261" y="614.3800000000001" width="25" height="20" as="geometry" />
        </mxCell>
        <mxCell id="6mb8tyxkaXb4ksADJFs9-110" value="&lt;font style=&quot;font-size: 8px;&quot;&gt;Unlock&amp;nbsp;&lt;/font&gt;" style="text;html=1;strokeColor=none;fillColor=none;align=center;verticalAlign=middle;whiteSpace=wrap;rounded=0;" vertex="1" parent="1">
          <mxGeometry x="303" y="570" width="60" height="30" as="geometry" />
        </mxCell>
        <mxCell id="6mb8tyxkaXb4ksADJFs9-111" value="&lt;font style=&quot;font-size: 8px;&quot;&gt;Lock&lt;/font&gt;" style="text;html=1;strokeColor=none;fillColor=none;align=center;verticalAlign=middle;whiteSpace=wrap;rounded=0;" vertex="1" parent="1">
          <mxGeometry x="302.5" y="589.19" width="60" height="30" as="geometry" />
        </mxCell>
        <mxCell id="6mb8tyxkaXb4ksADJFs9-112" value="" style="pointerEvents=1;verticalLabelPosition=bottom;shadow=0;dashed=0;align=center;html=1;verticalAlign=top;shape=mxgraph.electrical.waveforms.pulse_1;" vertex="1" parent="1">
          <mxGeometry x="355.5" y="588.19" width="12" height="4" as="geometry" />
        </mxCell>
        <mxCell id="6mb8tyxkaXb4ksADJFs9-113" value="" style="pointerEvents=1;verticalLabelPosition=bottom;shadow=0;dashed=0;align=center;html=1;verticalAlign=top;shape=mxgraph.electrical.waveforms.pulse_1;" vertex="1" parent="1">
          <mxGeometry x="355.5" y="604.19" width="12" height="4" as="geometry" />
        </mxCell>
        <mxCell id="6mb8tyxkaXb4ksADJFs9-114" style="edgeStyle=orthogonalEdgeStyle;rounded=0;orthogonalLoop=1;jettySize=auto;html=1;exitX=1;exitY=0.5;exitDx=0;exitDy=0;exitPerimeter=0;entryX=-0.001;entryY=0.552;entryDx=0;entryDy=0;entryPerimeter=0;endArrow=none;endFill=0;" edge="1" parent="1" source="6mb8tyxkaXb4ksADJFs9-116">
          <mxGeometry relative="1" as="geometry">
            <mxPoint x="236" y="549" as="targetPoint" />
          </mxGeometry>
        </mxCell>
        <mxCell id="6mb8tyxkaXb4ksADJFs9-115" style="edgeStyle=orthogonalEdgeStyle;rounded=0;orthogonalLoop=1;jettySize=auto;html=1;exitX=0;exitY=0.5;exitDx=0;exitDy=0;exitPerimeter=0;entryX=1;entryY=0.5;entryDx=0;entryDy=0;entryPerimeter=0;endArrow=none;endFill=0;" edge="1" parent="1" source="6mb8tyxkaXb4ksADJFs9-116" target="6mb8tyxkaXb4ksADJFs9-120">
          <mxGeometry relative="1" as="geometry" />
        </mxCell>
        <mxCell id="6mb8tyxkaXb4ksADJFs9-116" value="" style="pointerEvents=1;verticalLabelPosition=bottom;shadow=0;dashed=0;align=center;html=1;verticalAlign=top;shape=mxgraph.electrical.miscellaneous.light_bulb;" vertex="1" parent="1">
          <mxGeometry x="208" y="542" width="16" height="12.75" as="geometry" />
        </mxCell>
        <mxCell id="6mb8tyxkaXb4ksADJFs9-117" style="edgeStyle=orthogonalEdgeStyle;rounded=0;orthogonalLoop=1;jettySize=auto;html=1;exitX=1;exitY=0.5;exitDx=0;exitDy=0;exitPerimeter=0;entryX=0.005;entryY=0.639;entryDx=0;entryDy=0;entryPerimeter=0;endArrow=none;endFill=0;" edge="1" parent="1" source="6mb8tyxkaXb4ksADJFs9-119">
          <mxGeometry relative="1" as="geometry">
            <mxPoint x="237" y="565" as="targetPoint" />
          </mxGeometry>
        </mxCell>
        <mxCell id="6mb8tyxkaXb4ksADJFs9-118" style="edgeStyle=orthogonalEdgeStyle;rounded=0;orthogonalLoop=1;jettySize=auto;html=1;exitX=0;exitY=0.5;exitDx=0;exitDy=0;exitPerimeter=0;entryX=1;entryY=0.5;entryDx=0;entryDy=0;entryPerimeter=0;endArrow=none;endFill=0;" edge="1" parent="1" source="6mb8tyxkaXb4ksADJFs9-119" target="6mb8tyxkaXb4ksADJFs9-121">
          <mxGeometry relative="1" as="geometry" />
        </mxCell>
        <mxCell id="6mb8tyxkaXb4ksADJFs9-119" value="" style="pointerEvents=1;verticalLabelPosition=bottom;shadow=0;dashed=0;align=center;html=1;verticalAlign=top;shape=mxgraph.electrical.miscellaneous.light_bulb;" vertex="1" parent="1">
          <mxGeometry x="208" y="558" width="16" height="12.75" as="geometry" />
        </mxCell>
        <mxCell id="6mb8tyxkaXb4ksADJFs9-126" style="edgeStyle=orthogonalEdgeStyle;rounded=0;orthogonalLoop=1;jettySize=auto;html=1;exitX=0;exitY=0.5;exitDx=0;exitDy=0;exitPerimeter=0;entryX=0.5;entryY=0;entryDx=0;entryDy=0;entryPerimeter=0;endArrow=none;endFill=0;" edge="1" parent="1" source="6mb8tyxkaXb4ksADJFs9-120" target="6mb8tyxkaXb4ksADJFs9-125">
          <mxGeometry relative="1" as="geometry" />
        </mxCell>
        <mxCell id="6mb8tyxkaXb4ksADJFs9-120" value="" style="pointerEvents=1;verticalLabelPosition=bottom;shadow=0;dashed=0;align=center;html=1;verticalAlign=top;shape=mxgraph.electrical.resistors.resistor_2;" vertex="1" parent="1">
          <mxGeometry x="156" y="544.5600000000001" width="44" height="7.63" as="geometry" />
        </mxCell>
        <mxCell id="6mb8tyxkaXb4ksADJFs9-127" style="edgeStyle=orthogonalEdgeStyle;rounded=0;orthogonalLoop=1;jettySize=auto;html=1;exitX=0;exitY=0.5;exitDx=0;exitDy=0;exitPerimeter=0;endArrow=none;endFill=0;" edge="1" parent="1" source="6mb8tyxkaXb4ksADJFs9-121">
          <mxGeometry relative="1" as="geometry">
            <mxPoint x="150" y="564.3333333333334" as="targetPoint" />
          </mxGeometry>
        </mxCell>
        <mxCell id="6mb8tyxkaXb4ksADJFs9-121" value="" style="pointerEvents=1;verticalLabelPosition=bottom;shadow=0;dashed=0;align=center;html=1;verticalAlign=top;shape=mxgraph.electrical.resistors.resistor_2;" vertex="1" parent="1">
          <mxGeometry x="156" y="560.5600000000001" width="44" height="7.63" as="geometry" />
        </mxCell>
        <mxCell id="6mb8tyxkaXb4ksADJFs9-122" value="&lt;span style=&quot;font-size: 8px;&quot;&gt;Denied&lt;/span&gt;" style="text;html=1;strokeColor=none;fillColor=none;align=center;verticalAlign=middle;whiteSpace=wrap;rounded=0;" vertex="1" parent="1">
          <mxGeometry x="197.5" y="566.88" width="35" height="17" as="geometry" />
        </mxCell>
        <mxCell id="6mb8tyxkaXb4ksADJFs9-123" value="" style="pointerEvents=1;verticalLabelPosition=bottom;shadow=0;dashed=0;align=center;html=1;verticalAlign=top;shape=mxgraph.electrical.waveforms.pulse_1;" vertex="1" parent="1">
          <mxGeometry x="223" y="542" width="12" height="4" as="geometry" />
        </mxCell>
        <mxCell id="6mb8tyxkaXb4ksADJFs9-124" value="" style="pointerEvents=1;verticalLabelPosition=bottom;shadow=0;dashed=0;align=center;html=1;verticalAlign=top;shape=mxgraph.electrical.waveforms.pulse_1;" vertex="1" parent="1">
          <mxGeometry x="223" y="558" width="12" height="4" as="geometry" />
        </mxCell>
        <mxCell id="6mb8tyxkaXb4ksADJFs9-125" value="" style="pointerEvents=1;verticalLabelPosition=bottom;shadow=0;dashed=0;align=center;html=1;verticalAlign=top;shape=mxgraph.electrical.signal_sources.protective_earth;" vertex="1" parent="1">
          <mxGeometry x="137.5" y="568.19" width="25" height="20" as="geometry" />
        </mxCell>
        <mxCell id="6mb8tyxkaXb4ksADJFs9-131" style="edgeStyle=orthogonalEdgeStyle;rounded=0;orthogonalLoop=1;jettySize=auto;html=1;exitX=0;exitY=0.75;exitDx=0;exitDy=0;entryX=1.001;entryY=0.395;entryDx=0;entryDy=0;entryPerimeter=0;strokeWidth=3;" edge="1" parent="1" source="6mb8tyxkaXb4ksADJFs9-128" target="6mb8tyxkaXb4ksADJFs9-2">
          <mxGeometry relative="1" as="geometry" />
        </mxCell>
        <mxCell id="6mb8tyxkaXb4ksADJFs9-128" value="Key pad&lt;br&gt;3x4" style="rounded=0;whiteSpace=wrap;html=1;" vertex="1" parent="1">
          <mxGeometry x="592" y="512.88" width="64" height="71" as="geometry" />
        </mxCell>
        <mxCell id="6mb8tyxkaXb4ksADJFs9-129" value="" style="endArrow=classic;html=1;rounded=0;strokeWidth=3;" edge="1" parent="1">
          <mxGeometry width="50" height="50" relative="1" as="geometry">
            <mxPoint x="164" y="516" as="sourcePoint" />
            <mxPoint x="655" y="528" as="targetPoint" />
            <Array as="points">
              <mxPoint x="164" y="479" />
              <mxPoint x="41" y="479" />
              <mxPoint x="43" y="704" />
              <mxPoint x="607" y="702" />
              <mxPoint x="703" y="702" />
              <mxPoint x="703" y="527" />
            </Array>
          </mxGeometry>
        </mxCell>
        <mxCell id="6mb8tyxkaXb4ksADJFs9-132" value="&lt;span style=&quot;font-size: 8px;&quot;&gt;SIG KEY INPUT&lt;/span&gt;" style="text;html=1;strokeColor=none;fillColor=none;align=center;verticalAlign=middle;whiteSpace=wrap;rounded=0;" vertex="1" parent="1">
          <mxGeometry x="527" y="533" width="60" height="48" as="geometry" />
        </mxCell>
        <mxCell id="6mb8tyxkaXb4ksADJFs9-133" value="" style="pointerEvents=1;verticalLabelPosition=bottom;shadow=0;dashed=0;align=center;html=1;verticalAlign=top;shape=mxgraph.electrical.waveforms.slow_square_wave;" vertex="1" parent="1">
          <mxGeometry x="501" y="548" width="26" height="12" as="geometry" />
        </mxCell>
        <mxCell id="6mb8tyxkaXb4ksADJFs9-134" value="&lt;span style=&quot;font-size: 8px;&quot;&gt;Allow&lt;/span&gt;" style="text;html=1;strokeColor=none;fillColor=none;align=center;verticalAlign=middle;whiteSpace=wrap;rounded=0;" vertex="1" parent="1">
          <mxGeometry x="185" y="521" width="60" height="30" as="geometry" />
        </mxCell>
        <mxCell id="6mb8tyxkaXb4ksADJFs9-143" style="edgeStyle=orthogonalEdgeStyle;rounded=0;orthogonalLoop=1;jettySize=auto;html=1;exitX=0.5;exitY=0;exitDx=0;exitDy=0;exitPerimeter=0;endArrow=none;endFill=0;" edge="1" parent="1" source="6mb8tyxkaXb4ksADJFs9-136">
          <mxGeometry relative="1" as="geometry">
            <mxPoint x="672" y="627" as="targetPoint" />
            <Array as="points">
              <mxPoint x="676" y="627" />
            </Array>
          </mxGeometry>
        </mxCell>
        <mxCell id="6mb8tyxkaXb4ksADJFs9-136" value="" style="pointerEvents=1;verticalLabelPosition=bottom;shadow=0;dashed=0;align=center;html=1;verticalAlign=top;shape=mxgraph.electrical.signal_sources.protective_earth;" vertex="1" parent="1">
          <mxGeometry x="663.5" y="638" width="25" height="20" as="geometry" />
        </mxCell>
        <mxCell id="6mb8tyxkaXb4ksADJFs9-142" style="edgeStyle=orthogonalEdgeStyle;rounded=0;orthogonalLoop=1;jettySize=auto;html=1;exitX=1;exitY=0.8;exitDx=0;exitDy=0;endArrow=none;endFill=0;" edge="1" parent="1" source="6mb8tyxkaXb4ksADJFs9-138">
          <mxGeometry relative="1" as="geometry">
            <mxPoint x="672" y="627.2634730538922" as="targetPoint" />
          </mxGeometry>
        </mxCell>
        <mxCell id="6mb8tyxkaXb4ksADJFs9-153" style="edgeStyle=orthogonalEdgeStyle;rounded=0;orthogonalLoop=1;jettySize=auto;html=1;exitX=0;exitY=0.8;exitDx=0;exitDy=0;entryX=1.014;entryY=0.728;entryDx=0;entryDy=0;entryPerimeter=0;endArrow=none;endFill=0;" edge="1" parent="1" source="6mb8tyxkaXb4ksADJFs9-138" target="6mb8tyxkaXb4ksADJFs9-2">
          <mxGeometry relative="1" as="geometry" />
        </mxCell>
        <mxCell id="6mb8tyxkaXb4ksADJFs9-138" value="" style="html=1;shape=mxgraph.electrical.electro-mechanical.pushbutton;aspect=fixed;elSwitchState=off;" vertex="1" parent="1">
          <mxGeometry x="624" y="619" width="38.5" height="10.27" as="geometry" />
        </mxCell>
        <mxCell id="6mb8tyxkaXb4ksADJFs9-141" style="edgeStyle=orthogonalEdgeStyle;rounded=0;orthogonalLoop=1;jettySize=auto;html=1;exitX=1;exitY=0.8;exitDx=0;exitDy=0;endArrow=none;endFill=0;" edge="1" parent="1" source="6mb8tyxkaXb4ksADJFs9-140">
          <mxGeometry relative="1" as="geometry">
            <mxPoint x="672" y="627" as="targetPoint" />
            <Array as="points">
              <mxPoint x="672" y="612" />
            </Array>
          </mxGeometry>
        </mxCell>
        <mxCell id="6mb8tyxkaXb4ksADJFs9-152" style="edgeStyle=orthogonalEdgeStyle;rounded=0;orthogonalLoop=1;jettySize=auto;html=1;exitX=0;exitY=0.8;exitDx=0;exitDy=0;entryX=0.997;entryY=0.65;entryDx=0;entryDy=0;entryPerimeter=0;endArrow=none;endFill=0;" edge="1" parent="1" source="6mb8tyxkaXb4ksADJFs9-140" target="6mb8tyxkaXb4ksADJFs9-2">
          <mxGeometry relative="1" as="geometry" />
        </mxCell>
        <mxCell id="6mb8tyxkaXb4ksADJFs9-140" value="" style="html=1;shape=mxgraph.electrical.electro-mechanical.pushbutton;aspect=fixed;elSwitchState=off;" vertex="1" parent="1">
          <mxGeometry x="625" y="604" width="38.5" height="10.27" as="geometry" />
        </mxCell>
        <mxCell id="6mb8tyxkaXb4ksADJFs9-150" style="edgeStyle=orthogonalEdgeStyle;rounded=0;orthogonalLoop=1;jettySize=auto;html=1;exitX=0;exitY=0.5;exitDx=0;exitDy=0;exitPerimeter=0;entryX=0.5;entryY=0;entryDx=0;entryDy=0;entryPerimeter=0;endArrow=none;endFill=0;" edge="1" parent="1" source="6mb8tyxkaXb4ksADJFs9-144" target="6mb8tyxkaXb4ksADJFs9-148">
          <mxGeometry relative="1" as="geometry" />
        </mxCell>
        <mxCell id="6mb8tyxkaXb4ksADJFs9-155" style="edgeStyle=orthogonalEdgeStyle;rounded=0;orthogonalLoop=1;jettySize=auto;html=1;exitX=1;exitY=0.5;exitDx=0;exitDy=0;exitPerimeter=0;endArrow=none;endFill=0;" edge="1" parent="1" source="6mb8tyxkaXb4ksADJFs9-144">
          <mxGeometry relative="1" as="geometry">
            <mxPoint x="512" y="612" as="targetPoint" />
          </mxGeometry>
        </mxCell>
        <mxCell id="6mb8tyxkaXb4ksADJFs9-144" value="" style="pointerEvents=1;verticalLabelPosition=bottom;shadow=0;dashed=0;align=center;html=1;verticalAlign=top;shape=mxgraph.electrical.resistors.resistor_2;rotation=90;" vertex="1" parent="1">
          <mxGeometry x="503" y="594.19" width="18" height="4" as="geometry" />
        </mxCell>
        <mxCell id="6mb8tyxkaXb4ksADJFs9-151" style="edgeStyle=orthogonalEdgeStyle;rounded=0;orthogonalLoop=1;jettySize=auto;html=1;exitX=0;exitY=0.5;exitDx=0;exitDy=0;exitPerimeter=0;endArrow=none;endFill=0;" edge="1" parent="1" source="6mb8tyxkaXb4ksADJFs9-146">
          <mxGeometry relative="1" as="geometry">
            <mxPoint x="512" y="585" as="targetPoint" />
          </mxGeometry>
        </mxCell>
        <mxCell id="6mb8tyxkaXb4ksADJFs9-154" style="edgeStyle=orthogonalEdgeStyle;rounded=0;orthogonalLoop=1;jettySize=auto;html=1;exitX=1;exitY=0.5;exitDx=0;exitDy=0;exitPerimeter=0;endArrow=none;endFill=0;" edge="1" parent="1" source="6mb8tyxkaXb4ksADJFs9-146">
          <mxGeometry relative="1" as="geometry">
            <mxPoint x="520" y="627" as="targetPoint" />
          </mxGeometry>
        </mxCell>
        <mxCell id="6mb8tyxkaXb4ksADJFs9-146" value="" style="pointerEvents=1;verticalLabelPosition=bottom;shadow=0;dashed=0;align=center;html=1;verticalAlign=top;shape=mxgraph.electrical.resistors.resistor_2;rotation=90;" vertex="1" parent="1">
          <mxGeometry x="510.88000000000005" y="594.1899999999999" width="18" height="4" as="geometry" />
        </mxCell>
        <mxCell id="6mb8tyxkaXb4ksADJFs9-148" value="&lt;blockquote style=&quot;margin: 0 0 0 40px; border: none; padding: 0px;&quot;&gt;&lt;br&gt;&lt;/blockquote&gt;" style="verticalLabelPosition=top;verticalAlign=bottom;shape=mxgraph.electrical.signal_sources.vdd;shadow=0;dashed=0;align=left;strokeWidth=1;fontSize=24;html=1;flipV=1;labelPosition=right;textDirection=rtl;" vertex="1" parent="1">
          <mxGeometry x="508.5" y="573" width="7" height="10" as="geometry" />
        </mxCell>
        <mxCell id="6mb8tyxkaXb4ksADJFs9-156" value="&lt;span style=&quot;font-size: 8px;&quot;&gt;Vdd&lt;/span&gt;" style="text;html=1;strokeColor=none;fillColor=none;align=center;verticalAlign=middle;whiteSpace=wrap;rounded=0;" vertex="1" parent="1">
          <mxGeometry x="494.7" y="549" width="60" height="48" as="geometry" />
        </mxCell>
        <mxCell id="6mb8tyxkaXb4ksADJFs9-158" value="" style="pointerEvents=1;verticalLabelPosition=bottom;shadow=0;dashed=0;align=center;html=1;verticalAlign=top;shape=mxgraph.electrical.waveforms.step_2;" vertex="1" parent="1">
          <mxGeometry x="550" y="604" width="11" height="6" as="geometry" />
        </mxCell>
        <mxCell id="6mb8tyxkaXb4ksADJFs9-159" value="" style="pointerEvents=1;verticalLabelPosition=bottom;shadow=0;dashed=0;align=center;html=1;verticalAlign=top;shape=mxgraph.electrical.waveforms.step_2;" vertex="1" parent="1">
          <mxGeometry x="550" y="619" width="9" height="6" as="geometry" />
        </mxCell>
        <mxCell id="6mb8tyxkaXb4ksADJFs9-161" value="&lt;span style=&quot;font-size: 8px;&quot;&gt;SIG Unlock&lt;/span&gt;" style="text;html=1;strokeColor=none;fillColor=none;align=center;verticalAlign=middle;whiteSpace=wrap;rounded=0;" vertex="1" parent="1">
          <mxGeometry x="562" y="582" width="60" height="48" as="geometry" />
        </mxCell>
        <mxCell id="6mb8tyxkaXb4ksADJFs9-162" value="&lt;span style=&quot;font-size: 8px;&quot;&gt;SIG Lock&lt;/span&gt;" style="text;html=1;strokeColor=none;fillColor=none;align=center;verticalAlign=middle;whiteSpace=wrap;rounded=0;" vertex="1" parent="1">
          <mxGeometry x="558" y="597" width="60" height="48" as="geometry" />
        </mxCell>
        <mxCell id="6mb8tyxkaXb4ksADJFs9-166" style="edgeStyle=orthogonalEdgeStyle;rounded=0;orthogonalLoop=1;jettySize=auto;html=1;exitX=0;exitY=0.8;exitDx=0;exitDy=0;entryX=1;entryY=0.062;entryDx=0;entryDy=0;entryPerimeter=0;endArrow=none;endFill=0;" edge="1" parent="1" source="6mb8tyxkaXb4ksADJFs9-163" target="6mb8tyxkaXb4ksADJFs9-2">
          <mxGeometry relative="1" as="geometry" />
        </mxCell>
        <mxCell id="6mb8tyxkaXb4ksADJFs9-163" value="" style="html=1;shape=mxgraph.electrical.electro-mechanical.pushbutton;aspect=fixed;elSwitchState=off;" vertex="1" parent="1">
          <mxGeometry x="530" y="496" width="38.5" height="10.27" as="geometry" />
        </mxCell>
        <mxCell id="6mb8tyxkaXb4ksADJFs9-165" style="edgeStyle=orthogonalEdgeStyle;rounded=0;orthogonalLoop=1;jettySize=auto;html=1;exitX=0.5;exitY=0;exitDx=0;exitDy=0;exitPerimeter=0;entryX=1;entryY=0.8;entryDx=0;entryDy=0;endArrow=none;endFill=0;" edge="1" parent="1" source="6mb8tyxkaXb4ksADJFs9-164" target="6mb8tyxkaXb4ksADJFs9-163">
          <mxGeometry relative="1" as="geometry">
            <Array as="points">
              <mxPoint x="571" y="504" />
            </Array>
          </mxGeometry>
        </mxCell>
        <mxCell id="6mb8tyxkaXb4ksADJFs9-164" value="" style="pointerEvents=1;verticalLabelPosition=bottom;shadow=0;dashed=0;align=center;html=1;verticalAlign=top;shape=mxgraph.electrical.signal_sources.protective_earth;" vertex="1" parent="1">
          <mxGeometry x="564" y="512" width="14" height="9" as="geometry" />
        </mxCell>
        <mxCell id="6mb8tyxkaXb4ksADJFs9-167" value="" style="pointerEvents=1;verticalLabelPosition=bottom;shadow=0;dashed=0;align=center;html=1;verticalAlign=top;shape=mxgraph.electrical.waveforms.pulse_1;" vertex="1" parent="1">
          <mxGeometry x="491.5" y="499" width="17" height="3" as="geometry" />
        </mxCell>
        <mxCell id="6mb8tyxkaXb4ksADJFs9-168" value="SIG test" style="text;html=1;strokeColor=none;fillColor=none;align=center;verticalAlign=middle;whiteSpace=wrap;rounded=0;fontSize=8;" vertex="1" parent="1">
          <mxGeometry x="474" y="487" width="60" height="44" as="geometry" />
        </mxCell>
        <mxCell id="6mb8tyxkaXb4ksADJFs9-170" style="edgeStyle=orthogonalEdgeStyle;rounded=0;orthogonalLoop=1;jettySize=auto;html=1;exitX=1;exitY=0.665;exitDx=0;exitDy=0;exitPerimeter=0;entryX=1;entryY=0.832;entryDx=0;entryDy=0;entryPerimeter=0;endArrow=none;endFill=0;" edge="1" parent="1" source="6mb8tyxkaXb4ksADJFs9-169">
          <mxGeometry relative="1" as="geometry">
            <mxPoint x="487.9999999999999" y="672.0880000000001" as="targetPoint" />
          </mxGeometry>
        </mxCell>
        <mxCell id="6mb8tyxkaXb4ksADJFs9-169" value="" style="pointerEvents=1;verticalLabelPosition=bottom;shadow=0;dashed=0;align=center;html=1;verticalAlign=top;shape=mxgraph.electrical.electro-mechanical.buzzer;rotation=-180;" vertex="1" parent="1">
          <mxGeometry x="538" y="666" width="16" height="17" as="geometry" />
        </mxCell>
        <mxCell id="6mb8tyxkaXb4ksADJFs9-172" style="edgeStyle=orthogonalEdgeStyle;rounded=0;orthogonalLoop=1;jettySize=auto;html=1;exitX=0.5;exitY=0;exitDx=0;exitDy=0;exitPerimeter=0;entryX=1;entryY=0.335;entryDx=0;entryDy=0;entryPerimeter=0;endArrow=none;endFill=0;" edge="1" parent="1" source="6mb8tyxkaXb4ksADJFs9-171" target="6mb8tyxkaXb4ksADJFs9-169">
          <mxGeometry relative="1" as="geometry">
            <Array as="points">
              <mxPoint x="533" y="677" />
            </Array>
          </mxGeometry>
        </mxCell>
        <mxCell id="6mb8tyxkaXb4ksADJFs9-171" value="" style="pointerEvents=1;verticalLabelPosition=bottom;shadow=0;dashed=0;align=center;html=1;verticalAlign=top;shape=mxgraph.electrical.signal_sources.protective_earth;" vertex="1" parent="1">
          <mxGeometry x="526" y="683" width="13" height="10" as="geometry" />
        </mxCell>
        <mxCell id="6mb8tyxkaXb4ksADJFs9-173" value="" style="pointerEvents=1;verticalLabelPosition=bottom;shadow=0;dashed=0;align=center;html=1;verticalAlign=top;shape=mxgraph.electrical.waveforms.pulse_1;" vertex="1" parent="1">
          <mxGeometry x="491" y="666" width="12" height="4" as="geometry" />
        </mxCell>
        <mxCell id="6mb8tyxkaXb4ksADJFs9-174" value="&lt;font style=&quot;font-size: 8px;&quot;&gt;Buzzer sig&lt;/font&gt;" style="text;html=1;strokeColor=none;fillColor=none;align=center;verticalAlign=middle;whiteSpace=wrap;rounded=0;strokeWidth=3;glass=0;spacing=-11;spacingTop=-1;direction=west;flipV=0;flipH=1;labelBorderColor=none;horizontal=1;" vertex="1" parent="1">
          <mxGeometry x="503" y="656" width="39" height="22" as="geometry" />
        </mxCell>
        <mxCell id="6mb8tyxkaXb4ksADJFs9-177" value="" style="pointerEvents=1;verticalLabelPosition=bottom;shadow=0;dashed=0;align=center;html=1;verticalAlign=top;shape=mxgraph.electrical.resistors.memristor_1;horizontal=1;rotation=-90;" vertex="1" parent="1">
          <mxGeometry x="414" y="468" width="32" height="9.5" as="geometry" />
        </mxCell>
        <mxCell id="6mb8tyxkaXb4ksADJFs9-178" value="&lt;font style=&quot;font-size: 8px;&quot;&gt;Control LCD sig&lt;/font&gt;" style="text;html=1;strokeColor=none;fillColor=none;align=center;verticalAlign=middle;whiteSpace=wrap;rounded=0;" vertex="1" parent="1">
          <mxGeometry x="436" y="451" width="60" height="30" as="geometry" />
        </mxCell>
        <mxCell id="6mb8tyxkaXb4ksADJFs9-208" style="edgeStyle=orthogonalEdgeStyle;rounded=0;orthogonalLoop=1;jettySize=auto;html=1;exitX=1;exitY=0.5;exitDx=0;exitDy=0;exitPerimeter=0;entryX=-0.001;entryY=0.552;entryDx=0;entryDy=0;entryPerimeter=0;endArrow=none;endFill=0;" edge="1" parent="1" source="6mb8tyxkaXb4ksADJFs9-210">
          <mxGeometry relative="1" as="geometry">
            <mxPoint x="523.88" y="638.5680000000002" as="targetPoint" />
          </mxGeometry>
        </mxCell>
        <mxCell id="6mb8tyxkaXb4ksADJFs9-209" style="edgeStyle=orthogonalEdgeStyle;rounded=0;orthogonalLoop=1;jettySize=auto;html=1;exitX=0;exitY=0.5;exitDx=0;exitDy=0;exitPerimeter=0;entryX=1;entryY=0.5;entryDx=0;entryDy=0;entryPerimeter=0;endArrow=none;endFill=0;" edge="1" parent="1" source="6mb8tyxkaXb4ksADJFs9-210">
          <mxGeometry relative="1" as="geometry">
            <mxPoint x="488" y="638.3750000000001" as="targetPoint" />
          </mxGeometry>
        </mxCell>
        <mxCell id="6mb8tyxkaXb4ksADJFs9-210" value="" style="pointerEvents=1;verticalLabelPosition=bottom;shadow=0;dashed=0;align=center;html=1;verticalAlign=top;shape=mxgraph.electrical.miscellaneous.light_bulb;" vertex="1" parent="1">
          <mxGeometry x="496" y="632" width="16" height="12.75" as="geometry" />
        </mxCell>
        <mxCell id="6mb8tyxkaXb4ksADJFs9-211" style="edgeStyle=orthogonalEdgeStyle;rounded=0;orthogonalLoop=1;jettySize=auto;html=1;exitX=1;exitY=0.5;exitDx=0;exitDy=0;exitPerimeter=0;entryX=0.005;entryY=0.639;entryDx=0;entryDy=0;entryPerimeter=0;endArrow=none;endFill=0;" edge="1" parent="1" source="6mb8tyxkaXb4ksADJFs9-213">
          <mxGeometry relative="1" as="geometry">
            <mxPoint x="524.6" y="654.576" as="targetPoint" />
          </mxGeometry>
        </mxCell>
        <mxCell id="6mb8tyxkaXb4ksADJFs9-212" style="edgeStyle=orthogonalEdgeStyle;rounded=0;orthogonalLoop=1;jettySize=auto;html=1;exitX=0;exitY=0.5;exitDx=0;exitDy=0;exitPerimeter=0;entryX=1;entryY=0.5;entryDx=0;entryDy=0;entryPerimeter=0;endArrow=none;endFill=0;" edge="1" parent="1" source="6mb8tyxkaXb4ksADJFs9-213">
          <mxGeometry relative="1" as="geometry">
            <mxPoint x="488" y="654.3750000000001" as="targetPoint" />
          </mxGeometry>
        </mxCell>
        <mxCell id="6mb8tyxkaXb4ksADJFs9-213" value="" style="pointerEvents=1;verticalLabelPosition=bottom;shadow=0;dashed=0;align=center;html=1;verticalAlign=top;shape=mxgraph.electrical.miscellaneous.light_bulb;" vertex="1" parent="1">
          <mxGeometry x="496" y="648" width="16" height="12.75" as="geometry" />
        </mxCell>
        <mxCell id="6mb8tyxkaXb4ksADJFs9-215" value="" style="pointerEvents=1;verticalLabelPosition=bottom;shadow=0;dashed=0;align=center;html=1;verticalAlign=top;shape=mxgraph.electrical.resistors.resistor_2;" vertex="1" parent="1">
          <mxGeometry x="524" y="634.3800000000002" width="44" height="7.63" as="geometry" />
        </mxCell>
        <mxCell id="6mb8tyxkaXb4ksADJFs9-223" style="edgeStyle=orthogonalEdgeStyle;rounded=0;orthogonalLoop=1;jettySize=auto;html=1;exitX=1;exitY=0.5;exitDx=0;exitDy=0;exitPerimeter=0;endArrow=none;endFill=0;" edge="1" parent="1" source="6mb8tyxkaXb4ksADJFs9-217">
          <mxGeometry relative="1" as="geometry">
            <mxPoint x="581" y="654.1176470588235" as="targetPoint" />
          </mxGeometry>
        </mxCell>
        <mxCell id="6mb8tyxkaXb4ksADJFs9-217" value="" style="pointerEvents=1;verticalLabelPosition=bottom;shadow=0;dashed=0;align=center;html=1;verticalAlign=top;shape=mxgraph.electrical.resistors.resistor_2;" vertex="1" parent="1">
          <mxGeometry x="524" y="650.3800000000002" width="44" height="7.63" as="geometry" />
        </mxCell>
        <mxCell id="6mb8tyxkaXb4ksADJFs9-222" style="edgeStyle=orthogonalEdgeStyle;rounded=0;orthogonalLoop=1;jettySize=auto;html=1;exitX=0.5;exitY=0;exitDx=0;exitDy=0;exitPerimeter=0;entryX=1;entryY=0.5;entryDx=0;entryDy=0;entryPerimeter=0;endArrow=none;endFill=0;" edge="1" parent="1" source="6mb8tyxkaXb4ksADJFs9-218" target="6mb8tyxkaXb4ksADJFs9-215">
          <mxGeometry relative="1" as="geometry">
            <Array as="points">
              <mxPoint x="581" y="638" />
            </Array>
          </mxGeometry>
        </mxCell>
        <mxCell id="6mb8tyxkaXb4ksADJFs9-218" value="" style="pointerEvents=1;verticalLabelPosition=bottom;shadow=0;dashed=0;align=center;html=1;verticalAlign=top;shape=mxgraph.electrical.signal_sources.protective_earth;" vertex="1" parent="1">
          <mxGeometry x="568.5" y="658" width="25" height="20" as="geometry" />
        </mxCell>
        <mxCell id="6mb8tyxkaXb4ksADJFs9-220" value="" style="pointerEvents=1;verticalLabelPosition=bottom;shadow=0;dashed=0;align=center;html=1;verticalAlign=top;shape=mxgraph.electrical.waveforms.pulse_1;" vertex="1" parent="1">
          <mxGeometry x="511" y="632" width="12" height="4" as="geometry" />
        </mxCell>
        <mxCell id="6mb8tyxkaXb4ksADJFs9-221" value="" style="pointerEvents=1;verticalLabelPosition=bottom;shadow=0;dashed=0;align=center;html=1;verticalAlign=top;shape=mxgraph.electrical.waveforms.pulse_1;" vertex="1" parent="1">
          <mxGeometry x="511" y="648" width="12" height="4" as="geometry" />
        </mxCell>
        <mxCell id="6mb8tyxkaXb4ksADJFs9-224" value="&lt;span style=&quot;font-size: 8px;&quot;&gt;Lock&lt;/span&gt;" style="text;html=1;strokeColor=none;fillColor=none;align=center;verticalAlign=middle;whiteSpace=wrap;rounded=0;" vertex="1" parent="1">
          <mxGeometry x="439" y="612.75" width="60" height="48" as="geometry" />
        </mxCell>
        <mxCell id="6mb8tyxkaXb4ksADJFs9-225" value="&lt;span style=&quot;font-size: 8px;&quot;&gt;UnLock&lt;/span&gt;" style="text;html=1;strokeColor=none;fillColor=none;align=center;verticalAlign=middle;whiteSpace=wrap;rounded=0;" vertex="1" parent="1">
          <mxGeometry x="437" y="628" width="60" height="48" as="geometry" />
        </mxCell>
      </root>
    </mxGraphModel>
  </diagram>
</mxfile>
